<?xml version="1.0" encoding="utf-8"?><svg xmlns="http://www.w3.org/2000/svg" xmlns:xlink="http://www.w3.org/1999/xlink" width="1545" height="746" preserveAspectRatio="xMidYMid" viewBox="0 0 1545 746" style="z-index:1;margin-right:-1.6px;display:block;background-repeat-y:initial;background-repeat-x:initial;background-color:rgb(153, 204, 255);animation-play-state:paused" ><g transform="translate(772.5,373) scale(1,1) translate(-772.5,-373)" style="transform:matrix(1, 0, 0, 1, 0, 0);animation-play-state:paused" ><defs style="animation-play-state:paused" ><linearGradient id="lg-0.30672096849230623" x1="0" x2="0" y1="0" y2="1" style="animation-play-state:paused" ><stop stop-color="#3184ce" offset="0" style="animation-play-state:paused" ></stop>

  
<stop stop-color="#e9f6ff" offset="1" style="animation-play-state:paused" ></stop></linearGradient></defs>


<rect x="0" y="0" width="1545" height="746" fill="url(#lg-0.30672096849230623)" style="animation-play-state:paused" ></rect>
<circle cx="0" cy="263.71998864766437" r="91.90000946027969" fill="#91cbf0" transform="matrix(1,0,0,1,0,0)" style="transform:matrix(1, 0, 0, 1, 0, 0);animation-play-state:paused" ></circle>
<circle cx="91.90000946027969" cy="294.1350011301274" r="75.54083711007628" fill="#91cbf0" transform="matrix(1,0,0,1,-0.005429701879620552,0)" style="transform:matrix(1, 0, 0, 1, -0.0054297, 0);animation-play-state:paused" ></circle>
<circle cx="167.44084657035597" cy="294.4520060161221" r="84.63473502855778" fill="#91cbf0" transform="matrix(1,0,0,1,-0.02211761102080345,0)" style="transform:matrix(1, 0, 0, 1, -0.0221176, 0);animation-play-state:paused" ></circle>
<circle cx="252.07558159891374" cy="301.19762250715814" r="90.0544418246289" fill="#91cbf0" transform="matrix(1,0,0,1,-0.0506916344165802,0)" style="transform:matrix(1, 0, 0, 1, -0.0506916, 0);animation-play-state:paused" ></circle>
<circle cx="342.13002342354264" cy="348.29838626882713" r="38.44462843588525" fill="#91cbf0" transform="matrix(1,0,0,1,-0.09182151407003403,0)" style="transform:matrix(1, 0, 0, 1, -0.0918215, 0);animation-play-state:paused" ></circle>
<circle cx="380.5746518594279" cy="343.19113832079125" r="50.60454701408347" fill="#91cbf0" transform="matrix(1,0,0,1,-0.14621874690055847,0)" style="transform:matrix(1, 0, 0, 1, -0.146219, 0);animation-play-state:paused" ></circle>
<circle cx="431.1791988735114" cy="334.57486664946566" r="74.35799257075178" fill="#91cbf0" transform="matrix(1,0,0,1,-0.21463677287101746,0)" style="transform:matrix(1, 0, 0, 1, -0.214637, 0);animation-play-state:paused" ></circle>
<circle cx="505.53719144426316" cy="342.00193179771395" r="77.1596482546032" fill="#91cbf0" transform="matrix(1,0,0,1,-0.29787129163742065,0)" style="transform:matrix(1, 0, 0, 1, -0.297871, 0);animation-play-state:paused" ></circle>
<circle cx="582.6968396988664" cy="362.92668596866815" r="37.55704539566246" fill="#91cbf0" transform="matrix(1,0,0,1,-0.39675474166870117,0)" style="transform:matrix(1, 0, 0, 1, -0.396755, 0);animation-play-state:paused" ></circle>
<circle cx="620.2538850945289" cy="366.02616992022337" r="33.716151752334525" fill="#91cbf0" transform="matrix(1,0,0,1,-0.5121511816978455,0)" style="transform:matrix(1, 0, 0, 1, -0.512151, 0);animation-play-state:paused" ></circle>
<circle cx="653.9700368468634" cy="368.20071322566326" r="31.4966001985167" fill="#91cbf0" transform="matrix(1,0,0,1,-0.6449497938156128,0)" style="transform:matrix(1, 0, 0, 1, -0.64495, 0);animation-play-state:paused" ></circle>
<circle cx="685.4666370453801" cy="364.93174602141556" r="67.07414605773164" fill="#91cbf0" transform="matrix(1,0,0,1,-0.7960463762283325,0)" style="transform:matrix(1, 0, 0, 1, -0.796046, 0);animation-play-state:paused" ></circle>
<circle cx="752.5407831031118" cy="372.50429216392916" r="48.24146781133123" fill="#91cbf0" transform="matrix(1,0,0,1,-0.9663248062133789,0)" style="transform:matrix(1, 0, 0, 1, -0.966325, 0);animation-play-state:paused" ></circle>
<circle cx="800.782250914443" cy="371.491678733308" r="57.09346898582125" fill="#91cbf0" transform="matrix(1,0,0,1,-1.1566318273544312,0)" style="transform:matrix(1, 0, 0, 1, -1.15663, 0);animation-play-state:paused" ></circle>
<circle cx="857.8757199002642" cy="367.6631693737546" r="47.78097005109817" fill="#91cbf0" transform="matrix(1,0,0,1,-1.367733359336853,0)" style="transform:matrix(1, 0, 0, 1, -1.36773, 0);animation-play-state:paused" ></circle>
<circle cx="905.6566899513624" cy="364.6712684874176" r="45.10003149987041" fill="#91cbf0" transform="matrix(1,0,0,1,-1.600265622138977,0)" style="transform:matrix(1, 0, 0, 1, -1.60027, 0);animation-play-state:paused" ></circle>
<circle cx="950.7567214512328" cy="361.78618627399317" r="44.10853359191806" fill="#91cbf0" transform="matrix(1,0,0,1,-1.8546773195266724,0)" style="transform:matrix(1, 0, 0, 1, -1.85468, 0);animation-play-state:paused" ></circle>
<circle cx="994.8652550431509" cy="345.84879238604924" r="81.4980735095691" fill="#91cbf0" transform="matrix(1,0,0,1,-2.131143093109131,0)" style="transform:matrix(1, 0, 0, 1, -2.13114, 0);animation-play-state:paused" ></circle>
<circle cx="1076.36332855272" cy="358.65299622607864" r="32.51341228478565" fill="#91cbf0" transform="matrix(1,0,0,1,-2.429478645324707,0)" style="transform:matrix(1, 0, 0, 1, -2.42948, 0);animation-play-state:paused" ></circle>
<circle cx="1108.8767408375056" cy="343.20248386092527" r="58.93957163972497" fill="#91cbf0" transform="matrix(1,0,0,1,-2.7490453720092773,0)" style="transform:matrix(1, 0, 0, 1, -2.74905, 0);animation-play-state:paused" ></circle>
<circle cx="1167.8163124772307" cy="352.87571031721444" r="34.399697290701724" fill="#91cbf0" transform="matrix(1,0,0,1,-3.088649272918701,0)" style="transform:matrix(1, 0, 0, 1, -3.08865, 0);animation-play-state:paused" ></circle>
<circle cx="1202.2160097679323" cy="338.0118341484517" r="53.913238604830475" fill="#91cbf0" transform="matrix(1,0,0,1,-3.4464592933654785,0)" style="transform:matrix(1, 0, 0, 1, -3.44646, 0);animation-play-state:paused" ></circle>
<circle cx="1256.1292483727627" cy="309.0616767402834" r="86.43820806764279" fill="#91cbf0" transform="matrix(1,0,0,1,-3.8199710845947266,0)" style="transform:matrix(1, 0, 0, 1, -3.81997, 0);animation-play-state:paused" ></circle>
<circle cx="1342.5674564404055" cy="339.3150173849628" r="39.16809722458592" fill="#91cbf0" transform="matrix(1,0,0,1,-4.20599889755249,0)" style="transform:matrix(1, 0, 0, 1, -4.206, 0);animation-play-state:paused" ></circle>
<circle cx="1381.7355536649914" cy="293.034398396879" r="85.55246935025393" fill="#91cbf0" transform="matrix(1,0,0,1,-4.600754261016846,0)" style="transform:matrix(1, 0, 0, 1, -4.60075, 0);animation-play-state:paused" ></circle>
<circle cx="1467.2880230152452" cy="301.863545025203" r="66.83742573525424" fill="#91cbf0" transform="matrix(1,0,0,1,-4.999999046325684,0)" style="transform:matrix(1, 0, 0, 1, -5, 0);animation-play-state:paused" ></circle>
<circle cx="1534.1254487504996" cy="277.86450551769417" r="81.25677086357182" fill="#91cbf0" transform="matrix(1,0,0,1,-5.399243354797363,0)" style="transform:matrix(1, 0, 0, 1, -5.39924, 0);animation-play-state:paused" ></circle>
<circle cx="0" cy="398.1486154066297" r="31.542820494475244" fill="#a8d1f5" transform="matrix(1,0,0,1,0,0)" style="transform:matrix(1, 0, 0, 1, 0, 0);animation-play-state:paused" ></circle>
<circle cx="31.542820494475244" cy="333.88796592715255" r="88.715817529784" fill="#a8d1f5" transform="matrix(1,0,0,1,-0.022117476910352707,0)" style="transform:matrix(1, 0, 0, 1, -0.0221175, 0);animation-play-state:paused" ></circle>
<circle cx="120.25863802425926" cy="394.46746957598043" r="40.991829128213155" fill="#a8d1f5" transform="matrix(1,0,0,1,-0.09182151407003403,0)" style="transform:matrix(1, 0, 0, 1, -0.0918215, 0);animation-play-state:paused" ></circle>
<circle cx="161.25046715247242" cy="389.02872832903216" r="49.468759505339634" fill="#a8d1f5" transform="matrix(1,0,0,1,-0.21463632583618164,0)" style="transform:matrix(1, 0, 0, 1, -0.214636, 0);animation-play-state:paused" ></circle>
<circle cx="210.71922665781204" cy="384.4098150982126" r="59.11768986493287" fill="#a8d1f5" transform="matrix(1,0,0,1,-0.39675408601760864,0)" style="transform:matrix(1, 0, 0, 1, -0.396754, 0);animation-play-state:paused" ></circle>
<circle cx="269.8369165227449" cy="373.81607521810344" r="79.6376397913002" fill="#a8d1f5" transform="matrix(1,0,0,1,-0.6449497938156128,0)" style="transform:matrix(1, 0, 0, 1, -0.64495, 0);animation-play-state:paused" ></circle>
<circle cx="349.4745563140451" cy="404.21920237849906" r="48.36325751608802" fill="#a8d1f5" transform="matrix(1,0,0,1,-0.9663236737251282,0)" style="transform:matrix(1, 0, 0, 1, -0.966324, 0);animation-play-state:paused" ></circle>
<circle cx="397.83781383013314" cy="393.4671413725575" r="73.08057432036168" fill="#a8d1f5" transform="matrix(1,0,0,1,-1.367732048034668,0)" style="transform:matrix(1, 0, 0, 1, -1.36773, 0);animation-play-state:paused" ></circle>
<circle cx="470.9183881504948" cy="418.59649307682025" r="37.149173363353825" fill="#a8d1f5" transform="matrix(1,0,0,1,-1.8546773195266724,0)" style="transform:matrix(1, 0, 0, 1, -1.85468, 0);animation-play-state:paused" ></circle>
<circle cx="508.06756151384866" cy="410.7568892413868" r="61.4533248790818" fill="#a8d1f5" transform="matrix(1,0,0,1,-2.429476737976074,0)" style="transform:matrix(1, 0, 0, 1, -2.42948, 0);animation-play-state:paused" ></circle>
<circle cx="569.5208863929305" cy="423.95082040732905" r="38.2140764384133" fill="#a8d1f5" transform="matrix(1,0,0,1,-3.0886471271514893,0)" style="transform:matrix(1, 0, 0, 1, -3.08865, 0);animation-play-state:paused" ></circle>
<circle cx="607.7349628313438" cy="424.28506418290846" r="45.77117853305913" fill="#a8d1f5" transform="matrix(1,0,0,1,-3.8199710845947266,0)" style="transform:matrix(1, 0, 0, 1, -3.81997, 0);animation-play-state:paused" ></circle>
<circle cx="653.5061413644029" cy="421.1275632897947" r="80.45903580212637" fill="#a8d1f5" transform="matrix(1,0,0,1,-4.600751876831055,0)" style="transform:matrix(1, 0, 0, 1, -4.60075, 0);animation-play-state:paused" ></circle>
<circle cx="733.9651771665292" cy="434.0565608942404" r="32.466450663062005" fill="#a8d1f5" transform="matrix(1,0,0,1,-5.399240970611572,0)" style="transform:matrix(1, 0, 0, 1, -5.39924, 0);animation-play-state:paused" ></circle>
<circle cx="766.4316278295912" cy="435.2923641466205" r="75.06800305267828" fill="#a8d1f5" transform="matrix(1,0,0,1,-6.180026531219482,0)" style="transform:matrix(1, 0, 0, 1, -6.18003, 0);animation-play-state:paused" ></circle>
<circle cx="841.4996308822695" cy="427.5369814360368" r="78.9579325409302" fill="#a8d1f5" transform="matrix(1,0,0,1,-6.911346912384033,0)" style="transform:matrix(1, 0, 0, 1, -6.91135, 0);animation-play-state:paused" ></circle>
<circle cx="920.4575634231996" cy="420.46889833638363" r="67.57442110178289" fill="#a8d1f5" transform="matrix(1,0,0,1,-7.570517539978027,0)" style="transform:matrix(1, 0, 0, 1, -7.57052, 0);animation-play-state:paused" ></circle>
<circle cx="988.0319845249826" cy="423.29621016139083" r="37.94362459302047" fill="#a8d1f5" transform="matrix(1,0,0,1,-8.145320892333984,0)" style="transform:matrix(1, 0, 0, 1, -8.14532, 0);animation-play-state:paused" ></circle>
<circle cx="1025.9756091180031" cy="419.3285533030499" r="42.340341338978035" fill="#a8d1f5" transform="matrix(1,0,0,1,-8.632264137268066,0)" style="transform:matrix(1, 0, 0, 1, -8.63226, 0);animation-play-state:paused" ></circle>
<circle cx="1068.3159504569812" cy="412.10195595292987" r="52.006546068713945" fill="#a8d1f5" transform="matrix(1,0,0,1,-9.033672332763672,0)" style="transform:matrix(1, 0, 0, 1, -9.03367, 0);animation-play-state:paused" ></circle>
<circle cx="1120.3224965256952" cy="386.802994881815" r="91.05383453106217" fill="#a8d1f5" transform="matrix(1,0,0,1,-9.355049133300781,0)" style="transform:matrix(1, 0, 0, 1, -9.35505, 0);animation-play-state:paused" ></circle>
<circle cx="1211.3763310567574" cy="374.17453043064853" r="90.68647183464284" fill="#a8d1f5" transform="matrix(1,0,0,1,-9.603243827819824,0)" style="transform:matrix(1, 0, 0, 1, -9.60324, 0);animation-play-state:paused" ></circle>
<circle cx="1302.0628028914002" cy="372.66908860441777" r="76.98666520440412" fill="#a8d1f5" transform="matrix(1,0,0,1,-9.785362243652344,0)" style="transform:matrix(1, 0, 0, 1, -9.78536, 0);animation-play-state:paused" ></circle>
<circle cx="1379.0494680958043" cy="374.9746034272401" r="64.76816996814037" fill="#a8d1f5" transform="matrix(1,0,0,1,-9.908178329467773,0)" style="transform:matrix(1, 0, 0, 1, -9.90818, 0);animation-play-state:paused" ></circle>
<circle cx="1443.8176380639447" cy="401.33983004466626" r="33.23685114708809" fill="#a8d1f5" transform="matrix(1,0,0,1,-9.977882385253906,0)" style="transform:matrix(1, 0, 0, 1, -9.97788, 0);animation-play-state:paused" ></circle>
<circle cx="1477.054489211033" cy="351.70061287866986" r="77.02417810171903" fill="#a8d1f5" transform="matrix(1,0,0,1,-10,0)" style="transform:matrix(1, 0, 0, 1, -10, 0);animation-play-state:paused" ></circle>
<circle cx="1554.0786673127518" cy="382.0728406598697" r="44.41729320040064" fill="#a8d1f5" transform="matrix(1,0,0,1,-9.977882385253906,0)" style="transform:matrix(1, 0, 0, 1, -9.97788, 0);animation-play-state:paused" ></circle>
<circle cx="1598.4959605131523" cy="390.57180197347225" r="35.40501876233036" fill="#a8d1f5" transform="matrix(1,0,0,1,-9.908178329467773,0)" style="transform:matrix(1, 0, 0, 1, -9.90818, 0);animation-play-state:paused" ></circle>
<circle cx="0" cy="409.23155130669085" r="73.97370724442429" fill="#bdd7f8" transform="matrix(1,0,0,1,0,0)" style="transform:matrix(1, 0, 0, 1, 0, 0);animation-play-state:paused" ></circle>
<circle cx="73.97370724442429" cy="415.02239915079855" r="76.47075149591362" fill="#bdd7f8" transform="matrix(1,0,0,1,-0.05069143697619438,0)" style="transform:matrix(1, 0, 0, 1, -0.0506914, 0);animation-play-state:paused" ></circle>
<circle cx="150.4444587403379" cy="429.5563978392347" r="70.83060268504329" fill="#bdd7f8" transform="matrix(1,0,0,1,-0.21463680267333984,0)" style="transform:matrix(1, 0, 0, 1, -0.214637, 0);animation-play-state:paused" ></circle>
<circle cx="221.27506142538118" cy="428.22229303013967" r="81.49014262308617" fill="#bdd7f8" transform="matrix(1,0,0,1,-0.5121498107910156,0)" style="transform:matrix(1, 0, 0, 1, -0.51215, 0);animation-play-state:paused" ></circle>
<circle cx="302.76520404846735" cy="441.2953944564205" r="77.71106192960367" fill="#bdd7f8" transform="matrix(1,0,0,1,-0.9663238525390625,0)" style="transform:matrix(1, 0, 0, 1, -0.966324, 0);animation-play-state:paused" ></circle>
<circle cx="380.476265978071" cy="451.88295170639424" r="75.72972568377213" fill="#bdd7f8" transform="matrix(1,0,0,1,-1.6002659797668457,0)" style="transform:matrix(1, 0, 0, 1, -1.60027, 0);animation-play-state:paused" ></circle>
<circle cx="456.20599166184314" cy="468.3021464237481" r="60.4437413789789" fill="#bdd7f8" transform="matrix(1,0,0,1,-2.4294753074645996,0)" style="transform:matrix(1, 0, 0, 1, -2.42948, 0);animation-play-state:paused" ></circle>
<circle cx="516.6497330408221" cy="471.86335698758927" r="65.76293290295443" fill="#bdd7f8" transform="matrix(1,0,0,1,-3.4464573860168457,0)" style="transform:matrix(1, 0, 0, 1, -3.44646, 0);animation-play-state:paused" ></circle>
<circle cx="582.4126659437765" cy="485.43175789155" r="42.56362422822778" fill="#bdd7f8" transform="matrix(1,0,0,1,-4.600754737854004,0)" style="transform:matrix(1, 0, 0, 1, -4.60075, 0);animation-play-state:paused" ></circle>
<circle cx="624.9762901720043" cy="480.72800105121627" r="75.36991400394878" fill="#bdd7f8" transform="matrix(1,0,0,1,-5.793995380401611,0)" style="transform:matrix(1, 0, 0, 1, -5.794, 0);animation-play-state:paused" ></circle>
<circle cx="700.3462041759531" cy="489.8906563395411" r="72.3508711052533" fill="#bdd7f8" transform="matrix(1,0,0,1,-6.911347389221191,0)" style="transform:matrix(1, 0, 0, 1, -6.91135, 0);animation-play-state:paused" ></circle>
<circle cx="772.6970752812064" cy="497.9759406536907" r="78.59029347459894" fill="#bdd7f8" transform="matrix(1,0,0,1,-7.8688554763793945,0)" style="transform:matrix(1, 0, 0, 1, -7.86886, 0);animation-play-state:paused" ></circle>
<circle cx="851.2873687558053" cy="486.9125820787503" r="90.59225354925415" fill="#bdd7f8" transform="matrix(1,0,0,1,-8.63226318359375,0)" style="transform:matrix(1, 0, 0, 1, -8.63226, 0);animation-play-state:paused" ></circle>
<circle cx="941.8796223050595" cy="485.50742553305685" r="47.47970684815037" fill="#bdd7f8" transform="matrix(1,0,0,1,-9.203951835632324,0)" style="transform:matrix(1, 0, 0, 1, -9.20395, 0);animation-play-state:paused" ></circle>
<circle cx="989.3593291532098" cy="484.09775507323826" r="41.269011605583486" fill="#bdd7f8" transform="matrix(1,0,0,1,-9.60324478149414,0)" style="transform:matrix(1, 0, 0, 1, -9.60324, 0);animation-play-state:paused" ></circle>
<circle cx="1030.6283407587932" cy="472.9241250943782" r="62.537086873302286" fill="#bdd7f8" transform="matrix(1,0,0,1,-9.853780746459961,0)" style="transform:matrix(1, 0, 0, 1, -9.85378, 0);animation-play-state:paused" ></circle>
<circle cx="1093.1654276320955" cy="457.79340274131675" r="80.71651869802845" fill="#bdd7f8" transform="matrix(1,0,0,1,-9.977882385253906,0)" style="transform:matrix(1, 0, 0, 1, -9.97788, 0);animation-play-state:paused" ></circle>
<circle cx="1173.881946330124" cy="445.76144328227167" r="83.7819717466295" fill="#bdd7f8" transform="matrix(1,0,0,1,-9.9945707321167,0)" style="transform:matrix(1, 0, 0, 1, -9.99457, 0);animation-play-state:paused" ></circle>
<circle cx="1257.6639180767536" cy="440.6007760019634" r="76.16137365534753" fill="#bdd7f8" transform="matrix(1,0,0,1,-9.908178329467773,0)" style="transform:matrix(1, 0, 0, 1, -9.90818, 0);animation-play-state:paused" ></circle>
<circle cx="1333.825291732101" cy="458.7092449153497" r="45.06018873244571" fill="#bdd7f8" transform="matrix(1,0,0,1,-9.702129364013672,0)" style="transform:matrix(1, 0, 0, 1, -9.70213, 0);animation-play-state:paused" ></circle>
<circle cx="1378.8854804645468" cy="421.67410277874075" r="81.02897895665951" fill="#bdd7f8" transform="matrix(1,0,0,1,-9.355049133300781,0)" style="transform:matrix(1, 0, 0, 1, -9.35505, 0);animation-play-state:paused" ></circle>
<circle cx="1459.9144594212064" cy="437.36955204593175" r="56.7792113411389" fill="#bdd7f8" transform="matrix(1,0,0,1,-8.84337043762207,0)" style="transform:matrix(1, 0, 0, 1, -8.84337, 0);animation-play-state:paused" ></circle>
<circle cx="1516.6936707623454" cy="433.38350215034615" r="55.89522207049033" fill="#bdd7f8" transform="matrix(1,0,0,1,-8.145322799682617,0)" style="transform:matrix(1, 0, 0, 1, -8.14532, 0);animation-play-state:paused" ></circle>
<circle cx="1572.5888928328357" cy="412.99645093783806" r="68.3936937494766" fill="#bdd7f8" transform="matrix(1,0,0,1,-7.250953197479248,0)" style="transform:matrix(1, 0, 0, 1, -7.25095, 0);animation-play-state:paused" ></circle>
<circle cx="0" cy="512.2766780192799" r="39.769434983933465" fill="#cfddfa" transform="matrix(1,0,0,1,0,0)" style="transform:matrix(1, 0, 0, 1, 0, 0);animation-play-state:paused" ></circle>
<circle cx="39.769434983933465" cy="503.25215078702894" r="49.856563483262235" fill="#cfddfa" transform="matrix(1,0,0,1,-0.09182096272706985,0)" style="transform:matrix(1, 0, 0, 1, -0.091821, 0);animation-play-state:paused" ></circle>
<circle cx="89.6259984671957" cy="511.9190886657326" r="45.32620454426207" fill="#cfddfa" transform="matrix(1,0,0,1,-0.3967541754245758,0)" style="transform:matrix(1, 0, 0, 1, -0.396754, 0);animation-play-state:paused" ></circle>
<circle cx="134.95220301145775" cy="478.6955954270452" r="82.09535142473449" fill="#cfddfa" transform="matrix(1,0,0,1,-0.9663218259811401,0)" style="transform:matrix(1, 0, 0, 1, -0.966322, 0);animation-play-state:paused" ></circle>
<circle cx="217.04755443619223" cy="505.2493339594602" r="63.454111229668925" fill="#cfddfa" transform="matrix(1,0,0,1,-1.8546746969223022,0)" style="transform:matrix(1, 0, 0, 1, -1.85467, 0);animation-play-state:paused" ></circle>
<circle cx="280.50166566586114" cy="507.26095382083355" r="69.005845362844" fill="#cfddfa" transform="matrix(1,0,0,1,-3.0886480808258057,0)" style="transform:matrix(1, 0, 0, 1, -3.08865, 0);animation-play-state:paused" ></circle>
<circle cx="349.50751102870515" cy="523.3070212051515" r="55.84284760381813" fill="#cfddfa" transform="matrix(1,0,0,1,-4.600748538970947,0)" style="transform:matrix(1, 0, 0, 1, -4.60075, 0);animation-play-state:paused" ></circle>
<circle cx="405.3503586325233" cy="532.3355631398318" r="48.50605644718155" fill="#cfddfa" transform="matrix(1,0,0,1,-6.180023193359375,0)" style="transform:matrix(1, 0, 0, 1, -6.18002, 0);animation-play-state:paused" ></circle>
<circle cx="453.85641507970485" cy="523.4966500893463" r="73.7470723311793" fill="#cfddfa" transform="matrix(1,0,0,1,-7.570518970489502,0)" style="transform:matrix(1, 0, 0, 1, -7.57052, 0);animation-play-state:paused" ></circle>
<circle cx="527.6034874108841" cy="539.3103009838275" r="54.386212367211336" fill="#cfddfa" transform="matrix(1,0,0,1,-8.632262229919434,0)" style="transform:matrix(1, 0, 0, 1, -8.63226, 0);animation-play-state:paused" ></circle>
<circle cx="581.9896997780954" cy="533.2323222899493" r="90.4501882878451" fill="#cfddfa" transform="matrix(1,0,0,1,-9.355048179626465,0)" style="transform:matrix(1, 0, 0, 1, -9.35505, 0);animation-play-state:paused" ></circle>
<circle cx="672.4398880659405" cy="551.7039567042325" r="53.37369475630655" fill="#cfddfa" transform="matrix(1,0,0,1,-9.785362243652344,0)" style="transform:matrix(1, 0, 0, 1, -9.78536, 0);animation-play-state:paused" ></circle>
<circle cx="725.8135828222471" cy="553.3267454845936" r="92.01621914863881" fill="#cfddfa" transform="matrix(1,0,0,1,-9.977882385253906,0)" style="transform:matrix(1, 0, 0, 1, -9.97788, 0);animation-play-state:paused" ></circle>
<circle cx="817.8298019708859" cy="553.9441957242566" r="86.00134642136071" fill="#cfddfa" transform="matrix(1,0,0,1,-9.977882385253906,0)" style="transform:matrix(1, 0, 0, 1, -9.97788, 0);animation-play-state:paused" ></circle>
<circle cx="903.8311483922466" cy="541.5455534796567" r="90.45873802906873" fill="#cfddfa" transform="matrix(1,0,0,1,-9.78536319732666,0)" style="transform:matrix(1, 0, 0, 1, -9.78536, 0);animation-play-state:paused" ></circle>
<circle cx="994.2898864213154" cy="543.2466150673621" r="48.62706647452067" fill="#cfddfa" transform="matrix(1,0,0,1,-9.35505199432373,0)" style="transform:matrix(1, 0, 0, 1, -9.35505, 0);animation-play-state:paused" ></circle>
<circle cx="1042.916952895836" cy="524.6334636170218" r="84.19297515460175" fill="#cfddfa" transform="matrix(1,0,0,1,-8.632267951965332,0)" style="transform:matrix(1, 0, 0, 1, -8.63227, 0);animation-play-state:paused" ></circle>
<circle cx="1127.1099280504377" cy="509.14918000969794" r="92.31330760739695" fill="#cfddfa" transform="matrix(1,0,0,1,-7.57051944732666,0)" style="transform:matrix(1, 0, 0, 1, -7.57052, 0);animation-play-state:paused" ></circle>
<circle cx="1219.4232356578345" cy="514.9103491479223" r="64.94731179796564" fill="#cfddfa" transform="matrix(1,0,0,1,-6.1800336837768555,0)" style="transform:matrix(1, 0, 0, 1, -6.18003, 0);animation-play-state:paused" ></circle>
<circle cx="1284.3705474558" cy="518.4120155323843" r="52.30280416424899" fill="#cfddfa" transform="matrix(1,0,0,1,-4.600756645202637,0)" style="transform:matrix(1, 0, 0, 1, -4.60076, 0);animation-play-state:paused" ></circle>
<circle cx="1336.673351620049" cy="518.2821030860441" r="47.60220606173833" fill="#cfddfa" transform="matrix(1,0,0,1,-3.08864688873291,0)" style="transform:matrix(1, 0, 0, 1, -3.08865, 0);animation-play-state:paused" ></circle>
<circle cx="1384.2755576817874" cy="474.8019419296277" r="89.65093357216185" fill="#cfddfa" transform="matrix(1,0,0,1,-1.8546810150146484,0)" style="transform:matrix(1, 0, 0, 1, -1.85468, 0);animation-play-state:paused" ></circle>
<circle cx="1473.9264912539493" cy="477.5623048125878" r="75.65905613576696" fill="#cfddfa" transform="matrix(1,0,0,1,-0.9663257598876953,0)" style="transform:matrix(1, 0, 0, 1, -0.966326, 0);animation-play-state:paused" ></circle>
<circle cx="1549.5855473897163" cy="479.49530239586187" r="66.69136912499185" fill="#cfddfa" transform="matrix(1,0,0,1,-0.39675426483154297,0)" style="transform:matrix(1, 0, 0, 1, -0.396754, 0);animation-play-state:paused" ></circle>
<circle cx="0" cy="513.5964135077992" r="90.33632207683405" fill="#dfe5fb" transform="matrix(1,0,0,1,0,0)" style="transform:matrix(1, 0, 0, 1, 0, 0);animation-play-state:paused" ></circle>
<circle cx="90.33632207683405" cy="558.966133778261" r="59.484333003163634" fill="#dfe5fb" transform="matrix(1,0,0,1,-0.14621765911579132,0)" style="transform:matrix(1, 0, 0, 1, -0.146218, 0);animation-play-state:paused" ></circle>
<circle cx="149.8206550799977" cy="557.6307329422552" r="66.5474389129558" fill="#dfe5fb" transform="matrix(1,0,0,1,-0.6449490785598755,0)" style="transform:matrix(1, 0, 0, 1, -0.644949, 0);animation-play-state:paused" ></circle>
<circle cx="216.3680939929535" cy="548.9906434024331" r="84.5119166910165" fill="#dfe5fb" transform="matrix(1,0,0,1,-1.600259780883789,0)" style="transform:matrix(1, 0, 0, 1, -1.60026, 0);animation-play-state:paused" ></circle>
<circle cx="300.88001068397" cy="565.1270969005045" r="77.63015181650144" fill="#dfe5fb" transform="matrix(1,0,0,1,-3.0886433124542236,0)" style="transform:matrix(1, 0, 0, 1, -3.08864, 0);animation-play-state:paused" ></circle>
<circle cx="378.51016250047144" cy="592.1798575294899" r="48.72388799981128" fill="#dfe5fb" transform="matrix(1,0,0,1,-4.999997138977051,0)" style="transform:matrix(1, 0, 0, 1, -5, 0);animation-play-state:paused" ></circle>
<circle cx="427.2340505002827" cy="583.1848608002836" r="72.37101108876625" fill="#dfe5fb" transform="matrix(1,0,0,1,-6.911341667175293,0)" style="transform:matrix(1, 0, 0, 1, -6.91134, 0);animation-play-state:paused" ></circle>
<circle cx="499.60506158904894" cy="584.1168333518723" r="89.36511857544059" fill="#dfe5fb" transform="matrix(1,0,0,1,-8.399728775024414,0)" style="transform:matrix(1, 0, 0, 1, -8.39973, 0);animation-play-state:paused" ></circle>
<circle cx="588.9701801644895" cy="603.7568141727184" r="63.98987852131174" fill="#dfe5fb" transform="matrix(1,0,0,1,-9.355049133300781,0)" style="transform:matrix(1, 0, 0, 1, -9.35505, 0);animation-play-state:paused" ></circle>
<circle cx="652.9600586858013" cy="615.3344753201053" r="35.89537911352909" fill="#dfe5fb" transform="matrix(1,0,0,1,-9.853779792785645,0)" style="transform:matrix(1, 0, 0, 1, -9.85378, 0);animation-play-state:paused" ></circle>
<circle cx="688.8554377993304" cy="610.2666630714908" r="90.3027698274846" fill="#dfe5fb" transform="matrix(1,0,0,1,-10,0)" style="transform:matrix(1, 0, 0, 1, -10, 0);animation-play-state:paused" ></circle>
<circle cx="779.1582076268149" cy="621.2966608323308" r="68.0024737233497" fill="#dfe5fb" transform="matrix(1,0,0,1,-9.853781700134277,0)" style="transform:matrix(1, 0, 0, 1, -9.85378, 0);animation-play-state:paused" ></circle>
<circle cx="847.1606813501646" cy="613.458202714533" r="73.65030566396396" fill="#dfe5fb" transform="matrix(1,0,0,1,-9.355052947998047,0)" style="transform:matrix(1, 0, 0, 1, -9.35505, 0);animation-play-state:paused" ></circle>
<circle cx="920.8109870141286" cy="608.0202022695485" r="60.6798927723465" fill="#dfe5fb" transform="matrix(1,0,0,1,-8.399736404418945,0)" style="transform:matrix(1, 0, 0, 1, -8.39974, 0);animation-play-state:paused" ></circle>
<circle cx="981.4908797864751" cy="603.2686076188648" r="57.69789503578191" fill="#dfe5fb" transform="matrix(1,0,0,1,-6.911350727081299,0)" style="transform:matrix(1, 0, 0, 1, -6.91135, 0);animation-play-state:paused" ></circle>
<circle cx="1039.188774822257" cy="588.4201199409262" r="81.05720910989281" fill="#dfe5fb" transform="matrix(1,0,0,1,-5.000009536743164,0)" style="transform:matrix(1, 0, 0, 1, -5.00001, 0);animation-play-state:paused" ></circle>
<circle cx="1120.2459839321498" cy="600.8772724296584" r="39.102553305289966" fill="#dfe5fb" transform="matrix(1,0,0,1,-3.088653087615967,0)" style="transform:matrix(1, 0, 0, 1, -3.08865, 0);animation-play-state:paused" ></circle>
<circle cx="1159.3485372374398" cy="579.9990897249753" r="69.89320984029399" fill="#dfe5fb" transform="matrix(1,0,0,1,-1.6002674102783203,0)" style="transform:matrix(1, 0, 0, 1, -1.60027, 0);animation-play-state:paused" ></circle>
<circle cx="1229.2417470777339" cy="573.7912793371312" r="67.9472899626143" fill="#dfe5fb" transform="matrix(1,0,0,1,-0.6449527740478516,0)" style="transform:matrix(1, 0, 0, 1, -0.644953, 0);animation-play-state:paused" ></circle>
<circle cx="1297.1890370403482" cy="579.098793708956" r="52.636227556124396" fill="#dfe5fb" transform="matrix(1,0,0,1,-0.14621925354003906,0)" style="transform:matrix(1, 0, 0, 1, -0.146219, 0);animation-play-state:paused" ></circle>
<circle cx="1349.8252645964726" cy="590.4480843800026" r="35.18215281046178" fill="#dfe5fb" transform="matrix(1,0,0,1,0,0)" style="transform:matrix(1, 0, 0, 1, 0, 0);animation-play-state:paused" ></circle>
<circle cx="1385.0074174069343" cy="568.5785344437652" r="56.146370598118395" fill="#dfe5fb" transform="matrix(1,0,0,1,-0.14621765911579132,0)" style="transform:matrix(1, 0, 0, 1, -0.146218, 0);animation-play-state:paused" ></circle>
<circle cx="1441.1537880050528" cy="533.2935289928635" r="85.40262798961766" fill="#dfe5fb" transform="matrix(1,0,0,1,-0.6449490785598755,0)" style="transform:matrix(1, 0, 0, 1, -0.644949, 0);animation-play-state:paused" ></circle>
<circle cx="1526.5564159946705" cy="525.0036884415449" r="82.80729961482982" fill="#dfe5fb" transform="matrix(1,0,0,1,-1.6002674102783203,0)" style="transform:matrix(1, 0, 0, 1, -1.60027, 0);animation-play-state:paused" ></circle>
<circle cx="0" cy="608.3596927643641" r="63.03358936302988" fill="#ecedfc" transform="matrix(1,0,0,1,0,0)" style="transform:matrix(1, 0, 0, 1, 0, 0);animation-play-state:paused" ></circle>
<circle cx="63.03358936302988" cy="643.6181830464502" r="36.64133251989793" fill="#ecedfc" transform="matrix(1,0,0,1,-0.21463550627231598,0)" style="transform:matrix(1, 0, 0, 1, -0.214636, 0);animation-play-state:paused" ></circle>
<circle cx="99.6749218829278" cy="627.1000886148141" r="54.44107115733854" fill="#ecedfc" transform="matrix(1,0,0,1,-0.9663242101669312,0)" style="transform:matrix(1, 0, 0, 1, -0.966324, 0);animation-play-state:paused" ></circle>
<circle cx="154.11599304026635" cy="618.299748530878" r="68.39526314916695" fill="#ecedfc" transform="matrix(1,0,0,1,-2.4294707775115967,0)" style="transform:matrix(1, 0, 0, 1, -2.42947, 0);animation-play-state:paused" ></circle>
<circle cx="222.5112561894333" cy="651.8921842757718" r="37.58150799462749" fill="#ecedfc" transform="matrix(1,0,0,1,-4.600749492645264,0)" style="transform:matrix(1, 0, 0, 1, -4.60075, 0);animation-play-state:paused" ></circle>
<circle cx="260.0927641840608" cy="620.8895832868193" r="79.2871917478225" fill="#ecedfc" transform="matrix(1,0,0,1,-6.911348819732666,0)" style="transform:matrix(1, 0, 0, 1, -6.91135, 0);animation-play-state:paused" ></circle>
<circle cx="339.3799559318833" cy="629.2809436109554" r="81.32939824162824" fill="#ecedfc" transform="matrix(1,0,0,1,-8.6322603225708,0)" style="transform:matrix(1, 0, 0, 1, -8.63226, 0);animation-play-state:paused" ></circle>
<circle cx="420.70935417351154" cy="635.2368401571532" r="89.23285630600753" fill="#ecedfc" transform="matrix(1,0,0,1,-9.603243827819824,0)" style="transform:matrix(1, 0, 0, 1, -9.60324, 0);animation-play-state:paused" ></circle>
<circle cx="509.9422104795191" cy="656.8323745742351" r="66.61070273244312" fill="#ecedfc" transform="matrix(1,0,0,1,-9.977882385253906,0)" style="transform:matrix(1, 0, 0, 1, -9.97788, 0);animation-play-state:paused" ></circle>
<circle cx="576.5529132119622" cy="665.3957046880558" r="61.12116951256047" fill="#ecedfc" transform="matrix(1,0,0,1,-9.90817928314209,0)" style="transform:matrix(1, 0, 0, 1, -9.90818, 0);animation-play-state:paused" ></circle>
<circle cx="637.6740827245226" cy="675.901619371941" r="38.66713933539238" fill="#ecedfc" transform="matrix(1,0,0,1,-9.355051040649414,0)" style="transform:matrix(1, 0, 0, 1, -9.35505, 0);animation-play-state:paused" ></circle>
<circle cx="676.3412220599149" cy="674.3044499886327" r="64.90837813794523" fill="#ecedfc" transform="matrix(1,0,0,1,-8.145318984985352,0)" style="transform:matrix(1, 0, 0, 1, -8.14532, 0);animation-play-state:paused" ></circle>
<circle cx="741.2496001978601" cy="679.6955332854466" r="88.67087989396079" fill="#ecedfc" transform="matrix(1,0,0,1,-6.1800336837768555,0)" style="transform:matrix(1, 0, 0, 1, -6.18003, 0);animation-play-state:paused" ></circle>
<circle cx="829.9204800918209" cy="677.8326506874591" r="69.14311955593904" fill="#ecedfc" transform="matrix(1,0,0,1,-3.8199734687805176,0)" style="transform:matrix(1, 0, 0, 1, -3.81997, 0);animation-play-state:paused" ></circle>
<circle cx="899.0635996477599" cy="677.8112841719783" r="31.47813293377262" fill="#ecedfc" transform="matrix(1,0,0,1,-1.8546762466430664,0)" style="transform:matrix(1, 0, 0, 1, -1.85468, 0);animation-play-state:paused" ></circle>
<circle cx="930.5417325815325" cy="667.2709716254539" r="68.14220421532171" fill="#ecedfc" transform="matrix(1,0,0,1,-0.6449518203735352,0)" style="transform:matrix(1, 0, 0, 1, -0.644952, 0);animation-play-state:paused" ></circle>
<circle cx="998.6839367968543" cy="669.7073487610921" r="40.678813736055446" fill="#ecedfc" transform="matrix(1,0,0,1,-0.09182167053222656,0)" style="transform:matrix(1, 0, 0, 1, -0.0918217, 0);animation-play-state:paused" ></circle>
<circle cx="1039.3627505329098" cy="649.1175694860063" r="84.14649327619135" fill="#ecedfc" transform="matrix(1,0,0,1,-0.02211802639067173,0)" style="transform:matrix(1, 0, 0, 1, -0.022118, 0);animation-play-state:paused" ></circle>
<circle cx="1123.5092438091012" cy="651.1495960266824" r="60.247551683637056" fill="#ecedfc" transform="matrix(1,0,0,1,-0.39675432443618774,0)" style="transform:matrix(1, 0, 0, 1, -0.396754, 0);animation-play-state:paused" ></circle>
<circle cx="1183.7567954927383" cy="644.085730313599" r="62.47875145706709" fill="#ecedfc" transform="matrix(1,0,0,1,-1.3677352666854858,0)" style="transform:matrix(1, 0, 0, 1, -1.36774, 0);animation-play-state:paused" ></circle>
<circle cx="1246.2355469498054" cy="629.1967001545315" r="74.47113585347732" fill="#ecedfc" transform="matrix(1,0,0,1,-3.0886569023132324,0)" style="transform:matrix(1, 0, 0, 1, -3.08866, 0);animation-play-state:paused" ></circle>
<circle cx="1320.7066828032828" cy="609.371449611402" r="87.63506688206367" fill="#ecedfc" transform="matrix(1,0,0,1,-5.399243354797363,0)" style="transform:matrix(1, 0, 0, 1, -5.39924, 0);animation-play-state:paused" ></circle>
<circle cx="1408.3417496853465" cy="602.713978682206" r="82.29701218774159" fill="#ecedfc" transform="matrix(1,0,0,1,-7.570524215698242,0)" style="transform:matrix(1, 0, 0, 1, -7.57052, 0);animation-play-state:paused" ></circle>
<circle cx="1490.638761873088" cy="596.6038156555794" r="78.34320699383645" fill="#ecedfc" transform="matrix(1,0,0,1,-9.033679008483887,0)" style="transform:matrix(1, 0, 0, 1, -9.03368, 0);animation-play-state:paused" ></circle>
<circle cx="1568.9819688669245" cy="640.1134057549751" r="35.470978816288905" fill="#ecedfc" transform="matrix(1,0,0,1,-9.78536319732666,0)" style="transform:matrix(1, 0, 0, 1, -9.78536, 0);animation-play-state:paused" ></circle>
<circle cx="0" cy="656.0268699042567" r="74.97760841311937" fill="#f7f5fd" transform="matrix(1,0,0,1,0,0)" style="transform:matrix(1, 0, 0, 1, 0, 0);animation-play-state:paused" ></circle>
<circle cx="74.97760841311937" cy="668.4728137262209" r="71.55057209017059" fill="#f7f5fd" transform="matrix(1,0,0,1,-0.2978692054748535,0)" style="transform:matrix(1, 0, 0, 1, -0.297869, 0);animation-play-state:paused" ></circle>
<circle cx="146.52818050328995" cy="673.4347488279001" r="74.62617163756339" fill="#f7f5fd" transform="matrix(1,0,0,1,-1.367730975151062,0)" style="transform:matrix(1, 0, 0, 1, -1.36773, 0);animation-play-state:paused" ></circle>
<circle cx="221.15435214085335" cy="672.7136806983351" r="85.56894977522234" fill="#f7f5fd" transform="matrix(1,0,0,1,-3.4464468955993652,0)" style="transform:matrix(1, 0, 0, 1, -3.44645, 0);animation-play-state:paused" ></circle>
<circle cx="306.7233019160757" cy="679.7339021784884" r="91.58637743812552" fill="#f7f5fd" transform="matrix(1,0,0,1,-6.180018901824951,0)" style="transform:matrix(1, 0, 0, 1, -6.18002, 0);animation-play-state:paused" ></circle>
<circle cx="398.3096793542012" cy="725.1631830468779" r="35.84726855152822" fill="#f7f5fd" transform="matrix(1,0,0,1,-8.399730682373047,0)" style="transform:matrix(1, 0, 0, 1, -8.39973, 0);animation-play-state:paused" ></circle>
<circle cx="434.1569479057294" cy="716.5576645915593" r="56.01859799356201" fill="#f7f5fd" transform="matrix(1,0,0,1,-9.603241920471191,0)" style="transform:matrix(1, 0, 0, 1, -9.60324, 0);animation-play-state:paused" ></circle>
<circle cx="490.1755458992914" cy="726.121598586864" r="45.32629293650041" fill="#f7f5fd" transform="matrix(1,0,0,1,-9.994569778442383,0)" style="transform:matrix(1, 0, 0, 1, -9.99457, 0);animation-play-state:paused" ></circle>
<circle cx="535.5018388357919" cy="720.0214604378732" r="70.56461856483281" fill="#f7f5fd" transform="matrix(1,0,0,1,-9.78536319732666,0)" style="transform:matrix(1, 0, 0, 1, -9.78536, 0);animation-play-state:paused" ></circle>
<circle cx="606.0664574006247" cy="733.616803305757" r="47.897093022334374" fill="#f7f5fd" transform="matrix(1,0,0,1,-8.84337329864502,0)" style="transform:matrix(1, 0, 0, 1, -8.84337, 0);animation-play-state:paused" ></circle>
<circle cx="653.9635504229591" cy="735.8039979807822" r="55.37264127018973" fill="#f7f5fd" transform="matrix(1,0,0,1,-6.9113569259643555,0)" style="transform:matrix(1, 0, 0, 1, -6.91136, 0);animation-play-state:paused" ></circle>
<circle cx="709.3361916931489" cy="740.9086546544872" r="51.88973961562624" fill="#f7f5fd" transform="matrix(1,0,0,1,-4.205999851226807,0)" style="transform:matrix(1, 0, 0, 1, -4.206, 0);animation-play-state:paused" ></circle>
<circle cx="761.2259313087751" cy="744.6224536241072" r="78.65798087350898" fill="#f7f5fd" transform="matrix(1,0,0,1,-1.8546857833862305,0)" style="transform:matrix(1, 0, 0, 1, -1.85469, 0);animation-play-state:paused" ></circle>
<circle cx="839.8839121822841" cy="737.6716893718099" r="79.56424305543628" fill="#f7f5fd" transform="matrix(1,0,0,1,-0.5121536254882812,0)" style="transform:matrix(1, 0, 0, 1, -0.512154, 0);animation-play-state:paused" ></circle>
<circle cx="919.4481552377204" cy="733.407402048745" r="55.16561210316926" fill="#f7f5fd" transform="matrix(1,0,0,1,-0.02211761474609375,0)" style="transform:matrix(1, 0, 0, 1, -0.0221176, 0);animation-play-state:paused" ></circle>
<circle cx="974.6137673408896" cy="716.8111413835771" r="92.9690638175579" fill="#f7f5fd" transform="matrix(1,0,0,1,-0.14621731638908386,0)" style="transform:matrix(1, 0, 0, 1, -0.146217, 0);animation-play-state:paused" ></circle>
<circle cx="1067.5828311584476" cy="711.5626430723304" r="75.12822225256286" fill="#f7f5fd" transform="matrix(1,0,0,1,-0.966323971748352,0)" style="transform:matrix(1, 0, 0, 1, -0.966324, 0);animation-play-state:paused" ></circle>
<circle cx="1142.7110534110104" cy="726.0707465015992" r="34.65444054516713" fill="#f7f5fd" transform="matrix(1,0,0,1,-2.7490484714508057,0)" style="transform:matrix(1, 0, 0, 1, -2.74905, 0);animation-play-state:paused" ></circle>
<circle cx="1177.3654939561775" cy="711.3665031445115" r="55.06844602354276" fill="#f7f5fd" transform="matrix(1,0,0,1,-5.399234771728516,0)" style="transform:matrix(1, 0, 0, 1, -5.39923, 0);animation-play-state:paused" ></circle>
<circle cx="1232.4339399797202" cy="680.5477635970499" r="91.61071519587574" fill="#f7f5fd" transform="matrix(1,0,0,1,-7.868854522705078,0)" style="transform:matrix(1, 0, 0, 1, -7.86885, 0);animation-play-state:paused" ></circle>
<circle cx="1324.0446551755958" cy="707.451515014532" r="44.99288856583062" fill="#f7f5fd" transform="matrix(1,0,0,1,-9.355051040649414,0)" style="transform:matrix(1, 0, 0, 1, -9.35505, 0);animation-play-state:paused" ></circle>
<circle cx="1369.0375437414264" cy="695.2298282451957" r="54.78833379399519" fill="#f7f5fd" transform="matrix(1,0,0,1,-9.949307441711426,0)" style="transform:matrix(1, 0, 0, 1, -9.94931, 0);animation-play-state:paused" ></circle>
<circle cx="1423.8258775354216" cy="695.9767539336962" r="49.44140217034722" fill="#f7f5fd" transform="matrix(1,0,0,1,-9.908178329467773,0)" style="transform:matrix(1, 0, 0, 1, -9.90818, 0);animation-play-state:paused" ></circle>
<circle cx="1473.2672797057687" cy="696.4691701661959" r="45.5007998074612" fill="#f7f5fd" transform="matrix(1,0,0,1,-9.203950881958008,0)" style="transform:matrix(1, 0, 0, 1, -9.20395, 0);animation-play-state:paused" ></circle>
<circle cx="1518.7680795132298" cy="660.0757114459553" r="74.12049674259943" fill="#f7f5fd" transform="matrix(1,0,0,1,-7.570525169372559,0)" style="transform:matrix(1, 0, 0, 1, -7.57053, 0);animation-play-state:paused" ></circle>
<circle cx="0" cy="746.7380714350542" r="51.051607137454894" fill="#ffffff" transform="matrix(1,0,0,1,0,0)" style="transform:matrix(1, 0, 0, 1, 0, 0);animation-play-state:paused" ></circle>
<circle cx="51.051607137454894" cy="708.2730601392024" r="88.98656947679989" fill="#ffffff" transform="matrix(1,0,0,1,-0.39675161242485046,0)" style="transform:matrix(1, 0, 0, 1, -0.396752, 0);animation-play-state:paused" ></circle>
<circle cx="140.03817661425478" cy="737.7229165766165" r="71.53138858503121" fill="#ffffff" transform="matrix(1,0,0,1,-1.8546746969223022,0)" style="transform:matrix(1, 0, 0, 1, -1.85467, 0);animation-play-state:paused" ></circle>
<circle cx="211.569565199286" cy="729.9570007437007" r="89.56579578195259" fill="#ffffff" transform="matrix(1,0,0,1,-4.600739002227783,0)" style="transform:matrix(1, 0, 0, 1, -4.60074, 0);animation-play-state:paused" ></circle>
<circle cx="301.1353609812386" cy="758.1666587366798" r="68.0581672503981" fill="#ffffff" transform="matrix(1,0,0,1,-7.5705108642578125,0)" style="transform:matrix(1, 0, 0, 1, -7.57051, 0);animation-play-state:paused" ></circle>
<circle cx="369.1935282316367" cy="762.5793390058029" r="72.49958173695747" fill="#ffffff" transform="matrix(1,0,0,1,-9.355048179626465,0)" style="transform:matrix(1, 0, 0, 1, -9.35505, 0);animation-play-state:paused" ></circle>
<circle cx="441.6931099685942" cy="780.0086015099938" r="54.471243861428455" fill="#ffffff" transform="matrix(1,0,0,1,-9.97788143157959,0)" style="transform:matrix(1, 0, 0, 1, -9.97788, 0);animation-play-state:paused" ></circle>
<circle cx="496.1643538300226" cy="786.8679502272747" r="49.229106811736045" fill="#ffffff" transform="matrix(1,0,0,1,-9.785364151000977,0)" style="transform:matrix(1, 0, 0, 1, -9.78536, 0);animation-play-state:paused" ></circle>
<circle cx="545.3934606417587" cy="791.9208714553015" r="45.57745906348362" fill="#ffffff" transform="matrix(1,0,0,1,-8.632267951965332,0)" style="transform:matrix(1, 0, 0, 1, -8.63227, 0);animation-play-state:paused" ></circle>
<circle cx="590.9709197052423" cy="797.64214596146" r="36.73168247469349" fill="#ffffff" transform="matrix(1,0,0,1,-6.180042743682861,0)" style="transform:matrix(1, 0, 0, 1, -6.18004, 0);animation-play-state:paused" ></circle>
<circle cx="627.7026021799358" cy="796.3381170965015" r="51.84718256094855" fill="#ffffff" transform="matrix(1,0,0,1,-3.088655471801758,0)" style="transform:matrix(1, 0, 0, 1, -3.08866, 0);animation-play-state:paused" ></circle>
<circle cx="679.5497847408843" cy="797.0785453692928" r="75.63926989215061" fill="#ffffff" transform="matrix(1,0,0,1,-0.9663257598876953,0)" style="transform:matrix(1, 0, 0, 1, -0.966326, 0);animation-play-state:paused" ></circle>
<circle cx="755.189054633035" cy="806.6347335396594" r="50.77078491169416" fill="#ffffff" transform="matrix(1,0,0,1,-0.09182357788085938,0)" style="transform:matrix(1, 0, 0, 1, -0.0918236, 0);animation-play-state:paused" ></circle>
<circle cx="805.9598395447291" cy="805.0113333554126" r="57.50039984146451" fill="#ffffff" transform="matrix(1,0,0,1,-0.09182096272706985,0)" style="transform:matrix(1, 0, 0, 1, -0.091821, 0);animation-play-state:paused" ></circle>
<circle cx="863.4602393861936" cy="799.8606262965492" r="57.60452981384507" fill="#ffffff" transform="matrix(1,0,0,1,-0.966326117515564,0)" style="transform:matrix(1, 0, 0, 1, -0.966326, 0);animation-play-state:paused" ></circle>
<circle cx="921.0647692000387" cy="790.8435233539415" r="74.34119071681826" fill="#ffffff" transform="matrix(1,0,0,1,-3.0886390209198,0)" style="transform:matrix(1, 0, 0, 1, -3.08864, 0);animation-play-state:paused" ></circle>
<circle cx="995.4059599168569" cy="777.3439845890445" r="88.53424075409954" fill="#ffffff" transform="matrix(1,0,0,1,-6.180023193359375,0)" style="transform:matrix(1, 0, 0, 1, -6.18002, 0);animation-play-state:paused" ></circle>
<circle cx="1083.9402006709565" cy="779.9407181961993" r="57.99881525340025" fill="#ffffff" transform="matrix(1,0,0,1,-8.632266998291016,0)" style="transform:matrix(1, 0, 0, 1, -8.63227, 0);animation-play-state:paused" ></circle>
<circle cx="1141.9390159243567" cy="783.5789040153591" r="42.55392598634346" fill="#ffffff" transform="matrix(1,0,0,1,-9.785360336303711,0)" style="transform:matrix(1, 0, 0, 1, -9.78536, 0);animation-play-state:paused" ></circle>
<circle cx="1184.4929419107002" cy="759.4550474609944" r="75.85278779789992" fill="#ffffff" transform="matrix(1,0,0,1,-9.977882385253906,0)" style="transform:matrix(1, 0, 0, 1, -9.97788, 0);animation-play-state:paused" ></circle>
<circle cx="1260.3457297086002" cy="748.3766063977755" r="78.67765831292347" fill="#ffffff" transform="matrix(1,0,0,1,-9.355048179626465,0)" style="transform:matrix(1, 0, 0, 1, -9.35505, 0);animation-play-state:paused" ></circle>
<circle cx="1339.0233880215237" cy="763.3995594885528" r="50.68022642368531" fill="#ffffff" transform="matrix(1,0,0,1,-7.570527076721191,0)" style="transform:matrix(1, 0, 0, 1, -7.57053, 0);animation-play-state:paused" ></circle>
<circle cx="1389.703614445209" cy="770.1214632403517" r="39.50772073968192" fill="#ffffff" transform="matrix(1,0,0,1,-4.600756645202637,0)" style="transform:matrix(1, 0, 0, 1, -4.60076, 0);animation-play-state:paused" ></circle>
<circle cx="1429.211335184891" cy="746.3617985819682" r="60.42166479688764" fill="#ffffff" transform="matrix(1,0,0,1,-1.8546743392944336,0)" style="transform:matrix(1, 0, 0, 1, -1.85467, 0);animation-play-state:paused" ></circle>
<circle cx="1489.6329999817785" cy="729.441362188524" r="70.5198660393856" fill="#ffffff" transform="matrix(1,0,0,1,-0.3967561721801758,0)" style="transform:matrix(1, 0, 0, 1, -0.396756, 0);animation-play-state:paused" ></circle>
<circle cx="1560.152866021164" cy="711.8510041931244" r="78.58273450250238" fill="#ffffff" transform="matrix(1,0,0,1,0,0)" style="transform:matrix(1, 0, 0, 1, 0, 0);animation-play-state:paused" ></circle></g></svg>